<svg xmlns="http://www.w3.org/2000/svg" style="display: none;"><symbol id="search-with-magnifier-sketch" viewBox="0 0 188.71 188.71"><title>search-with-magnifier-sketch</title><path d="M168.722,136.957c-5.398-6.005-18.321-21.243-28.949-23.585c-0.186-0.248-0.432-0.445-0.737-0.603 c0.002-0.004,0.005-0.008,0.008-0.011c-0.865-0.393-1.746-0.745-2.617-1.119c21.437-27.542,5.918-72.16-16.76-93.612 C90.862-9.218,46.75-3.15,20.88,24.241C-3.555,50.114-8.229,97.337,15.903,125.014c19.192,22.014,67.946,36.505,90.659,11.208 c16.418,16.976,67.007,76.58,81.086,40.933C193.014,163.565,176.715,145.846,168.722,136.957z M159.329,136.032 c-1.093-0.737-2.146-1.448-3.129-2.132c-14.497-10.073-30.444-18.22-44.271-29.238c1.244-1.934,2.331-3.942,3.319-5.992 c2.25,1.952,4.59,3.802,6.96,5.601c2.591,1.968,5.209,4.304,7.947,6.317c-0.015,0.098-0.061,0.195-0.066,0.292 c-0.671,0.543-0.675,1.715-0.127,2.402c-0.008,0.002-0.018,0.005-0.025,0.007c0.022,0.024,0.055,0.038,0.078,0.062 c0.072,0.081,0.149,0.151,0.238,0.212c0.172,0.983,0.92,1.752,1.902,2.168c-0.043-0.012-0.035-0.006,0.034,0.021 c0.014,0.006,0.024,0.017,0.039,0.021c0.018,0.008,0.036,0.014,0.055,0.021c0.081,0.036,0.173,0.078,0.285,0.148 c0.224,0.143,0.367,0.264,0.594,0.456c0.291,1.172,1.256,2.246,2.652,2.396C144.154,119.676,153.324,129.878,159.329,136.032z M103.271,105.048c-0.435,0.055-0.851,0.261-1.097,0.661c-0.645,1.047-1.312,2.024-1.993,2.956 c-0.346,0.369-0.653,0.765-1.01,1.123c-0.313,0.315-0.526,0.65-0.688,0.991c-10.787,12.716-25.635,12.508-41.438,4.018 C36.335,103.67,26.449,80.264,36.874,58.66c9.869-20.451,31.311-27.169,50.867-19.755c2.081,1.192,4.146,2.37,6.178,3.54 c3.097,1.782,6.041,3.776,8.932,5.845C118.301,63.405,116.497,87.958,103.271,105.048z M117.512,93.138 c2.671,1.668,5.286,3.409,7.844,5.25c2.845,2.049,5.475,4.744,8.446,6.656c-0.698,1.078-1.451,2.128-2.267,3.14 c-1.96-1.238-4.007-2.379-5.88-3.643c-3.367-2.27-6.604-4.711-9.872-7.111C116.422,96.02,116.989,94.585,117.512,93.138z M135.507,102.103c-2.229-2.102-5.082-3.755-7.54-5.443c-3.116-2.142-6.354-4.096-9.65-5.945c0.901-2.907,1.584-5.865,1.951-8.856 c2.634,3.232,13.459,9.54,18.458,12.29C137.929,96.925,136.844,99.58,135.507,102.103z M139.706,90.025 c-2.839-1.683-5.916-3.117-8.724-4.672c-2.286-1.265-4.562-2.543-6.862-3.78c-0.688-0.37-1.451-0.972-2.209-1.181 c-0.392-0.108-0.601-0.034-0.75,0.093c-0.049-0.114-0.122-0.22-0.247-0.286c-0.125-0.065-0.245-0.126-0.381-0.163 c-0.017-0.005-0.032,0.006-0.048,0.003c0.19-2.212,0.285-4.425,0.183-6.627c5.9,5.411,12.822,9.885,19.446,14.279 C140,88.477,139.855,89.251,139.706,90.025z M140.557,83.53c-6.505-4.636-13.908-7.859-20.099-13.006 c-0.361-3.371-1.064-6.695-2.165-9.908c7.325,6.3,14.574,12.714,22.407,18.322C140.715,80.481,140.658,82.012,140.557,83.53z M115.309,22.385c4.858,4.067,9.326,9.52,13.14,15.756c-7.254-6.097-15.502-11.494-22.971-16.948 c-6.573-4.8-13.942-10.329-21.883-13.405C94.932,9.674,105.935,14.54,115.309,22.385z M75.223,6.993 c0.096,0.132,0.203,0.263,0.409,0.331c22.767,7.569,36.445,29.667,57.405,39.716c0.053,0.025,0.104,0.024,0.156,0.044 c1.189,2.606,2.289,5.274,3.224,8.013c-22.64-17.969-48.235-31.769-72.375-47.61C67.741,6.971,71.483,6.858,75.223,6.993z M61.527,7.877c25.265,18.503,51.682,35.375,76.886,53.975c0.943,3.759,1.621,7.565,1.981,11.35 c-8.397-6.185-16.667-12.626-24.971-19.048c-2.895-5.377-6.946-10.306-12.405-14.387c-6.199-4.634-12.853-7.672-19.583-9.229 c-10.664-7.257-21.711-13.908-33.439-19.437C53.741,9.645,57.606,8.585,61.527,7.877z M48.259,11.84 c6.909,6.558,14.985,12.277,23.373,17.518c-3.126,0.086-6.226,0.449-9.254,1.17c-2.994-2.327-6.634-4.024-9.811-6.04 c-4.172-2.646-8.14-5.601-11.854-8.858C43.152,14.17,45.683,12.935,48.259,11.84z M39.082,16.612 c3.391,3.357,7.082,6.351,10.915,9.195c2.595,1.925,5.403,4.184,8.369,5.87c-2.423,0.82-4.796,1.825-7.084,3.062 c-2.301-1.833-4.756-3.513-7.018-5.37c-3.566-2.928-7.077-5.924-10.619-8.881C35.398,19.074,37.223,17.806,39.082,16.612z M31.799,21.977c3.484,3.136,6.941,6.301,10.462,9.396c1.877,1.65,3.814,3.582,5.917,5.193c-1.064,0.686-2.109,1.417-3.129,2.198 c-0.947-0.725-2.018-1.298-3.053-1.973c-2.191-1.431-4.307-2.977-6.405-4.539c-2.719-2.022-5.386-4.14-8.077-6.187 C28.89,24.614,30.327,23.262,31.799,21.977z M25.178,28.538c0.277-0.325,0.586-0.6,0.868-0.918c2.316,2.563,5.079,4.74,7.791,6.906 c2.383,1.903,5.411,4.918,8.516,6.502c-1.465,1.298-2.894,2.662-4.24,4.169c-0.066-0.3-0.26-0.58-0.627-0.774 c-5.839-3.097-11.33-6.403-16.45-10.445C22.344,32.096,23.709,30.265,25.178,28.538z M20.094,35.312 c4.807,4.502,10.18,8.457,16.08,11.354c0.18,0.088,0.356,0.129,0.525,0.141c-1.321,1.607-2.595,3.289-3.77,5.111 c-0.535,0.829-1.029,1.662-1.499,2.497c-1.832-1.257-3.78-2.381-5.582-3.661c-3.487-2.478-6.788-5.218-10.096-7.926 c-0.024-0.019-0.05-0.022-0.075-0.04C17.031,40.212,18.501,37.71,20.094,35.312z M14.578,44.846 c4.67,4.008,9.89,9.183,15.563,12.04c-0.959,1.969-1.766,3.95-2.407,5.937c-5.269-3.883-10.668-7.66-16.058-11.392 C12.546,49.188,13.524,46.996,14.578,44.846z M10.887,53.625c5.191,4.179,10.321,8.761,16.02,12.11 c-0.518,2.1-0.887,4.201-1.079,6.295c-1.741-2.998-5.483-5.172-8.231-7.059c-2.759-1.896-5.729-3.445-8.784-4.801 C9.406,57.958,10.117,55.781,10.887,53.625z M8.411,61.616c2.472,1.286,4.887,2.666,7.208,4.225 c3.457,2.322,5.905,5.896,9.327,8.096c0.281,0.181,0.535,0.149,0.76,0.048c-0.134,3,0.016,5.981,0.5,8.91 c-2.657-2.127-5.589-4.073-8.086-6.149c-3.681-3.06-7.31-6.183-10.957-9.285C7.503,65.499,7.929,63.552,8.411,61.616z M6.794,69.951c3.156,2.885,6.305,5.778,9.485,8.637c3.308,2.975,6.999,7.14,11.068,9.329c2.412,8.476,7.234,16.386,13.768,23.004 C29.487,100.454,18.007,89.806,5.978,79.749C6.01,76.479,6.336,73.208,6.794,69.951z M18.116,118.191 c-4.136-5.372-7.091-11.278-9.089-17.458c6.414,7.327,15.799,13.956,21.738,19.144c7.262,6.344,14.666,12.514,22.241,18.479 c1.111,0.874,2.302,1.928,3.539,3.007C41.042,137.691,26.497,129.08,18.116,118.191z M64.506,142.8 c-3.351-3.024-7.68-5.575-10.95-8.27c-7.545-6.221-15.014-12.537-22.379-18.971c-6.758-5.903-13.499-11.826-19.929-18.09 c-0.611-0.595-2.337-2.053-3.997-3.608c-0.757-3.772-1.144-7.617-1.248-11.483c22.685,20.654,43.655,43.527,69.097,60.85 C71.606,143.383,68.055,143.232,64.506,142.8z M79.895,142.806c-11.653-8.275-22.518-17.444-33.153-26.882 c2.168,1.725,4.428,3.359,6.833,4.812c3.649,2.203,8.02,4,12.651,5.196c6.369,6.19,14.456,10.594,22.068,15.039 C85.574,141.813,82.768,142.434,79.895,142.806z M90.515,140.218c0.205-0.591,0.095-1.291-0.589-1.728 c-7.006-4.474-14.836-7.183-21.532-12.074c3.789,0.812,7.697,1.2,11.491,1.098c3.15,1.933,6.331,3.812,9.501,5.711 c2.199,1.316,4.459,3.127,6.85,4.387C94.389,138.611,92.487,139.496,90.515,140.218z M99.095,135.897 c-2.051-1.795-4.743-2.909-7.145-4.143c-2.928-1.503-5.877-2.967-8.816-4.45c2.723-0.296,5.325-0.914,7.75-1.828 c3.771,2.797,7.636,5.456,11.607,7.946C101.395,134.311,100.262,135.135,99.095,135.897z M161.927,178.697 c-8.318-4.293-15.319-11.26-22.058-17.633c-9.982-9.44-19.305-21.452-31.478-28.327c-0.264-1.348-1.664-2.33-3.034-1.639 c-0.087-0.041-0.166-0.096-0.253-0.136c-0.172-0.08-0.348-0.114-0.521-0.124c-3.761-2.098-7.513-4.209-11.175-6.478 c1.538-0.783,2.937-1.766,4.238-2.869c26.816,17.667,47.33,43.271,74.863,59.956C168.656,181.31,164.542,180.045,161.927,178.697z M177.735,180.718c-28.91-16.727-49.447-44.324-78.724-60.473c1.363-1.396,2.562-2.988,3.496-4.863 c0.488-0.142,0.973-0.4,1.424-0.834c0.142-0.137,0.265-0.288,0.404-0.426c25.296,21.127,50.597,43.448,77.478,62.523 C181.066,178.708,179.6,180.004,177.735,180.718z M105.507,112.89c1.926-2.017,3.661-4.176,5.237-6.427 c21.517,18.891,46.805,31.655,66.759,52.533c0.276,0.289,0.605,0.431,0.937,0.463c2.273,4.337,3.785,8.867,3.898,13.456 C158.729,151.065,132.064,130.962,105.507,112.89z"/></symbol><symbol id="heart" viewBox="0 0 187.411 187.411"><title>heart</title><path d="M184.428,44.971c-13.84-43.112-84.135-44.528-96.434-3.424C71.444,8.125,24.296,7.488,6.34,43.59 c-24.76,49.78,28.093,111.248,70.717,130.201c0.246,0.108,0.486,0.157,0.718,0.17c0.413,0.722,1.031,1.314,1.877,1.545 c7.351,2.009,19.017-8.444,24.546-11.859c5.945-3.671,12.227-7.222,18.378-10.952c0.323,0.177,0.637,0.388,0.965,0.549 c1.866,0.932,3.679-1.114,2.63-2.761c4.495-2.819,8.868-5.767,12.924-8.976C167.646,118.926,196.978,84.06,184.428,44.971z M174.48,43.05c-1.867-1.389-3.646-2.624-4.972-3.646c-8.526-6.571-17.394-12.708-26.365-18.661 C156.166,22.976,168.133,30.435,174.48,43.05z M137.515,20.14c0.101,0.252,0.253,0.493,0.527,0.681 c14.578,9.945,27.966,20.416,40.114,32.943c0.233,1.131,0.472,2.259,0.629,3.447c0.085,0.647,0.13,1.291,0.19,1.935 c-8.359-6.377-17.397-11.964-25.604-18.595c-7.793-6.298-15.258-13.098-22.136-20.414C133.326,19.994,135.424,20.022,137.515,20.14 z M77.807,170.043c-15.458-9.091-31.253-22.884-43.835-39.047c1.752,1.658,3.47,3.254,5.076,4.771 c12.067,11.404,25.875,24.294,40.138,33.357C78.603,169.313,78.12,169.612,77.807,170.043z M83.581,167.632 c-9.677-11.474-24.109-20.153-35.508-29.808c-11.483-9.725-21.938-19.856-30.027-32.38c-2.664-5.628-4.807-11.379-6.381-17.175 c10.148,14.422,22.989,27.621,35.196,40.193c12.533,12.904,28.157,27.645,45.684,33.455 C89.595,164.072,86.437,166.262,83.581,167.632z M103.806,154.178c-18.503-8.804-34.171-25.727-48.666-39.614 c-9.082-8.703-17.878-17.713-26.351-27.009c-4.999-5.484-9.388-13.311-15.086-17.95c-0.427-0.348-0.963-0.113-1.025,0.425 c-0.619,5.312,7.15,12.364,10.201,16.072c9.088,11.044,19.17,21.344,29.248,31.476c10.345,10.401,21.104,20.428,32.511,29.657 c3.791,3.067,8.95,7.864,14.286,10.067c-0.847,0.574-1.748,1.21-2.734,1.934c-0.124-0.121-0.24-0.247-0.414-0.34 C78.607,149.724,64,138.91,49.879,125.446C36.42,112.614,25.133,97.297,11.241,85.004c-0.131-0.115-0.285-0.146-0.438-0.162 c-1.37-5.971-2.114-11.978-2.048-17.947c0.044-4.043,0.642-8.004,1.695-11.802c33.694,31.02,63.741,65.813,98.117,96.082 C106.978,152.171,105.397,153.182,103.806,154.178z M113.166,148.268C78.236,117.65,47.82,81.901,10.91,53.576 c0.926-2.947,2.154-5.771,3.629-8.444c16.738,24.147,39.12,43.571,60.498,63.508c9.538,8.896,18.666,18.218,28.151,27.173 c3.709,3.501,7.56,7.717,11.713,11.359C114.322,147.537,113.744,147.903,113.166,148.268z M119.979,143.967 C86.081,109.623,45.335,81.378,15.753,43.047c1.324-2.124,2.843-4.11,4.494-5.974c29.544,38.681,70.802,66.543,101.209,104.609 c0.306,0.384,0.646,0.593,0.993,0.725C121.625,142.926,120.802,143.447,119.979,143.967z M129.298,138.083 c-1.274,0.809-2.554,1.612-3.831,2.419c0.221-0.769,0.168-1.628-0.43-2.401C95.239,99.556,53.601,72.43,21.787,35.645 c-0.035-0.041-0.079-0.056-0.119-0.089c1.673-1.717,3.502-3.276,5.442-4.693c33.952,35.134,67.699,71.046,103.449,104.304 c0.737,0.687,1.58,0.767,2.329,0.54C131.69,136.525,130.491,137.325,129.298,138.083z M134.243,134.778 c0.684-0.874,0.854-2.106-0.196-3.101C98.774,98.299,66.758,60.307,29.154,29.454c2.666-1.714,5.557-3.107,8.62-4.174 c13.214,22.694,34.979,40.324,54.512,57.333c9.662,8.413,19.591,16.53,28.043,26.174c4.514,5.15,12.097,15.965,19.239,17.38 c1.511,0.299,3.05-1.261,2.107-2.742c-3.685-5.799-10.515-10.51-15.281-15.474c-8.676-9.033-17.676-17.229-27.291-25.303 C77.729,64.697,56.189,47.525,39.948,24.594c0.809-0.23,1.614-0.469,2.446-0.649c19.151-4.135,33.22,9.614,40.379,25.508 c-3.782-3.66-7.556-7.327-11.412-10.909c-5.862-5.445-12.338-12.826-20.397-14.406c-0.692-0.136-1.122,0.769-0.488,1.157 c8.354,5.105,15.958,14.024,22.946,20.81c11.234,10.91,22.056,22.248,32.911,33.531c8.242,8.567,16.471,17.135,24.651,25.76 c3.552,3.745,13.298,17.475,19.903,15.517c0.015-0.004,0.022-0.012,0.036-0.017C145.609,126.093,139.939,130.781,134.243,134.778z M152.093,119.777c0.251-0.857-0.21-1.909-1.203-2.308c-8.301-3.336-16.997-16.488-23.023-22.844 c-8.259-8.711-16.821-17.136-25.286-25.646c-4.179-4.201-8.386-8.375-12.606-12.535c1.444-0.649,2.465-2.148,1.942-4.226 c-0.13-0.516-0.296-1-0.438-1.504c0.244-0.838,0.545-1.628,0.83-2.432c3.102,9.93,17.211,19.61,23.699,25.33 c14.192,12.511,29.33,23.914,43.232,36.757c0.284,0.264,0.586,0.413,0.89,0.505C157.595,113.973,154.908,116.957,152.093,119.777z M162.581,107.758c-0.091-0.148-0.152-0.301-0.29-0.443c-11.58-11.888-25.617-21.649-38.479-32.079 c-10.033-8.134-24.188-17.779-30.398-29.775c1.216-2.8,2.713-5.341,4.398-7.679c0.974,2.729,3.523,6.881,4.079,7.562 c5.087,6.252,10.984,11.544,17.155,16.701c15.336,12.817,29.786,26.803,45.403,39.232c0.847,0.674,1.825,0.597,2.564,0.162 C165.619,103.591,164.145,105.702,162.581,107.758z M168.105,99.712c0-0.476-0.188-0.972-0.674-1.42 c-15.714-14.529-32.118-27.639-48.84-40.915c-7.184-5.705-14.709-11.984-18.994-20.239c-0.105-0.204-0.246-0.593-0.424-1.033 c0.243,0.126,0.463,0.293,0.712,0.41c0.166,0.091,0.304-0.148,0.147-0.252c-0.29-0.193-0.522-0.317-0.758-0.445 c1.307-1.601,2.727-3.071,4.229-4.429c8.916,13.229,20.502,24.911,31.733,36.032c8.757,8.672,22.367,25.325,34.981,28.612 C169.535,97.27,168.852,98.505,168.105,99.712z M171.829,92.972c-3.806-4.515-9.961-7.737-14.5-11.397 c-6.662-5.372-13.036-11.117-19.326-16.915c-11.719-10.8-22.756-22.339-32.551-34.902c1.333-1.063,2.735-2.024,4.177-2.914 c11.099,10.454,21.898,21.199,32.886,31.768c9.594,9.227,20.539,20.429,32.883,25.883c0.026,0.012,0.055,0.009,0.082,0.019 C174.444,87.382,173.22,90.205,171.829,92.972z M176.621,80.989c-10.414-8.454-21.421-16.013-31.519-24.965 c-11.261-9.981-21.969-20.595-33.404-30.375c2.115-1.15,4.325-2.111,6.594-2.913c9.046,10.44,18.903,20.102,29.212,29.305 c8.451,7.544,19.457,18.988,30.596,23.057C177.702,77.078,177.207,79.043,176.621,80.989z M178.83,70.407 c-8.987-7.468-19.697-13.498-28.737-20.955c-10.381-8.563-20.45-17.664-29.814-27.365c2.537-0.772,5.148-1.283,7.783-1.634 c6.92,8.19,14.555,15.657,22.633,22.775c8.494,7.484,18.19,16.328,28.502,21.41C179.169,66.572,179.055,68.497,178.83,70.407z"/></symbol><symbol id="sketch" viewBox="0 0 192.397 192.398"><title>sketch</title><path d="M107.029,69.401c-13.4-12.128-28.08-27.52-44.146-36.132c-0.871-0.466-1.744-0.427-2.503-0.128 c-1.01-0.623-2.365-0.632-3.443-0.097c-5.08,2.517-3.711,11.543-3.393,16.145c0.389,5.628,1.043,11.269,1.798,16.88 c-4.112-0.724-8.832-0.381-11.933-0.392c-11.477-0.039-23.377,0.92-34.766,2.354c-3.223,0.406-3.269,4.688,0,5.048 c2.886,0.318,5.804,0.448,8.732,0.513c0.042,0.158,0.113,0.315,0.254,0.464c19.987,21.149,44.249,38.113,65.736,57.73 c-0.591,0.583-1.163,1.186-1.762,1.758c0.205-0.915-0.032-1.95-0.981-2.646C56.439,113.179,30.502,99.08,9.133,77.74 c-0.433-2.062-1.139-3.925-2.4-5.275c-1.13-1.21-3.386-1.273-4.505,0c-3.917,4.456-1.569,12.117-1.124,17.559 c0.79,9.685,1.538,19.369,1.23,29.092c-0.097,3.036,2.646,3.938,4.753,3.032c0.403,0.451,0.904,0.813,1.502,0.959 c10.801,2.633,23.231,1.248,34.258,1.437c1.554,0.026,7.038,0.978,11.874,0.976c-0.16,3.026-0.112,6.109-0.031,9.188 c-1.158-0.223-2.028,1.393-0.835,2.034c0.308,0.165,0.597,0.36,0.903,0.528c0.059,2.116,0.111,4.225,0.095,6.299 c-0.033,4.466-1.245,9.734,0.494,13.947c1.456,3.527,6.759,2.512,6.696-0.613c26.584-12.401,42.706-38.68,63.393-58.346 c1.376-1.307,1.546-2.875,1.038-4.223C131.251,88.488,109.262,71.422,107.029,69.401z M16.128,116.81 c-2.172,0.033-4.343-0.078-6.513-0.039c0.308-3.004,0.426-6.021,0.475-9.037c0.706,0.668,1.423,1.326,2.1,2 c1.77,1.763,3.512,3.555,5.248,5.351c0.485,0.501,0.994,1.099,1.522,1.688C18.017,116.79,17.073,116.794,16.128,116.81z M23.746,116.715c-1.137-2.259-4.067-4.221-5.85-5.896c-2.321-2.178-4.624-4.418-7.121-6.398 c-0.215-0.171-0.434-0.339-0.652-0.509c-0.025-2.456-0.158-4.91-0.267-7.365c6.602,7.64,14.697,13.992,22.813,20.06 C29.693,116.638,26.72,116.671,23.746,116.715z M38.71,116.458c-10.219-7.56-20.552-14.591-29.004-24.161 c-0.125-2.929,0.162-6.798-0.04-10.485c11.633,12.981,25.552,24.036,40.055,34.184C45.651,115.943,41.508,116.282,38.71,116.458z M62.42,148.269c-0.164-1.612-0.364-3.205-0.445-4.701c-0.036-0.67-0.053-1.409-0.078-2.112c0.101,0.063,0.207,0.116,0.307,0.18 c1.721,1.085,3.385,2.368,5.087,3.576C65.709,146.279,64.091,147.304,62.42,148.269z M70.097,143.214 c-1.746-1.201-3.636-2.242-5.399-3.286c-0.958-0.567-1.941-1.092-2.917-1.63c-0.137-4.521-0.347-9.346-1.557-13.49 c0.543-0.187,1.001-0.43,1.397-0.711c5.553,3.711,11.107,7.357,16.557,10.98c0.484,0.32,0.941,0.395,1.373,0.372 C76.542,138.209,73.396,140.802,70.097,143.214z M86.43,128.728c-20.145-20.349-44.792-36.067-66.177-55.107 c4.811,0.024,9.629-0.067,14.412-0.053c8.407,9.429,18.035,17.701,27.634,25.884c9.338,7.962,18.506,17.409,28.733,24.255 C89.503,125.386,88,127.096,86.43,128.728z M93.478,121.035c-7.754-9.36-19.166-16.633-28.541-24.225 c-9.112-7.379-17.832-15.086-26.253-23.215c4.494,0.153,9.528,1.134,14.344,1.529c11.995,16.077,28.91,29.307,46.156,39.383 C97.29,116.693,95.396,118.877,93.478,121.035z M102.239,111.001c-16.562-10.273-32.082-21.392-45.164-35.735 c1.281-0.017,2.54-0.083,3.738-0.285c2.089-0.351,2.767-2.989,1.883-4.628c-0.374-0.693-0.867-1.271-1.428-1.78 c0.084-1.331,0.124-2.665,0.147-4.001c7.215,8.36,15.006,16.119,23.399,23.344c6.798,5.851,14.729,12.94,23.265,16.451 C106.118,106.562,104.172,108.773,102.239,111.001z M84.696,82.95c-8.33-6.745-16.069-14.23-23.275-22.162 c-0.029-2.855-0.104-5.709-0.134-8.553c8.334,7.554,17.454,14.301,26.215,21.319c9.491,7.602,17.631,16.328,26.555,24.431 c-1.078,1.132-2.198,2.211-3.258,3.367C102.652,94.679,92.941,89.626,84.696,82.95z M116.817,95.13 c-5.334-7.981-13.81-14.184-21.275-19.92C84.185,66.482,72.5,58.257,61.376,49.231c0.22-2.579,0.754-5.546,0.93-8.361 c10.052,9.469,20.846,18.26,30.986,27.628c6.417,5.927,12.894,11.783,19.163,17.868c1.938,1.881,3.86,3.77,5.716,5.731 c0.28,0.295,0.533,0.578,0.768,0.842C118.209,93.644,117.534,94.412,116.817,95.13z"/><path d="M188.827,96.429c1.631-14.496,6.981-34.544,0.288-48.371c-0.628-1.297-1.912-1.724-3.154-1.569 c1.196-1.268,1.007-3.357-0.118-4.681c-3.102-3.651-11.04-3.308-15.475-3.657c-6.927-0.546-14.13-1.012-20.942,0.618 c-1.34,0.32-1.915,1.358-1.934,2.438c-0.506,0.239-0.957,0.584-1.226,1.156c-6.086,12.942-3.735,30.26-3.381,44.115 c0.519,20.3-3.939,43.38,0.525,63.221c0.299,1.327,1.463,2.354,2.728,2.726c0.186,0.055,0.372,0.109,0.558,0.164 c1.875,0.553,4.258-0.646,4.66-2.646l0.451-2.243c0.263-1.31-0.328-2.53-1.247-3.283c0.053-1.029,0.105-2.435,0.156-4.051 c3.902,3.61,8.15,7.444,12.71,9.922c-2.45,0.18-4.901,0.36-7.353,0.512c-1.298,0.08-2.784,0.063-4.047,0.411 c-0.168,0.046-2.547,1.434-1.597,1.598c-1.038-0.179-1.673,0.9-0.999,1.717c1.579,1.912,1.713,2.726,4.541,3.205 c3.474,0.592,7.15,0.453,10.659,0.418c6.004-0.061,16.937,1.107,21.993-2.687c0.058-0.042,0.095-0.099,0.147-0.142 c1.313,0.64,3.1-0.234,2.624-2.014C184.422,134.749,186.71,115.24,188.827,96.429z M151.004,54.798 c0.007,0.004,0.009,0.008,0.013,0.011c11.637,6.887,20.33,17.325,31.279,24.985c-0.119,1.578-0.226,3.154-0.363,4.734 c-4.56-3.715-9.52-7.071-14.079-10.685c-5.52-4.372-11.155-8.551-17.085-12.332C150.788,59.266,150.871,57.027,151.004,54.798z M167.821,77.64c4.419,3.64,8.84,7.849,13.726,11.043c-0.287,2.981-0.591,5.969-0.915,8.979 c-10.009-7.737-20.272-15.032-29.619-23.673c-0.138-3.126-0.216-6.258-0.245-9.386C156.681,68.641,162.282,73.078,167.821,77.64z M178.401,122.253c-4.291-3.857-9.351-7.043-13.845-10.604c-4.541-3.597-8.8-7.52-12.902-11.604 c0.086-3.36,0.112-6.723,0.034-10.086c8.343,8.239,17.487,16.464,27.343,22.873C178.75,115.926,178.516,119.076,178.401,122.253z M178.493,132.023c-8.46-7.945-17.822-15.539-27.171-21.881c0.082-2.432,0.169-4.863,0.247-7.295 c7.783,8.576,16.974,17.213,26.727,22.621C178.284,127.662,178.333,129.853,178.493,132.023z M151.61,87.252 c-0.121-3.328-0.296-6.693-0.458-10.073c8.878,8.842,18.6,17.474,29.043,24.479c-0.124,1.129-0.246,2.251-0.372,3.387 c-0.148,1.354-0.282,2.796-0.426,4.197C169.95,102.113,160.389,95.326,151.61,87.252z M168.588,149.808 c-3.204-2.424-6.852-4.271-10.091-6.695c-2.619-1.961-5.134-4.053-7.684-6.1c0.095-3.647,0.176-7.693,0.229-10.9 c2.852,5.822,7.062,10.588,12.208,14.557c3.308,2.55,7.229,5.807,11.296,8.293C172.502,149.238,170.474,149.562,168.588,149.808z M181.262,148.488c-3.872-3.331-9.428-5.547-13.556-8.299c-6.263-4.174-11.744-9.338-15.186-16.095 c-0.333-0.653-0.961-0.696-1.439-0.417c0.021-1.42,0.031-2.523,0.031-3.012c-0.007-2.523,0.045-5.045,0.116-7.566 c9.85,7.328,18.09,17.139,27.917,24.426c0.631,3.811,1.636,7.506,3.213,10.959C182.004,148.461,181.624,148.494,181.262,148.488z M182.532,76.728c-9.504-8.596-19.354-17.429-30.462-23.722c-0.354-0.201-0.687-0.164-0.959-0.016 c0.211-2.742,0.533-5.464,1.017-8.155c0.034-0.186,0.044-0.387,0.058-0.587c1.538,0.055,3.067,0.121,4.593,0.205 c-0.688,0.254-1.141,1.204-0.521,1.967c6.803,8.38,16.866,15.906,26.722,21.353C182.871,70.764,182.733,73.75,182.532,76.728z M157.932,44.747c-0.112-0.114-0.229-0.181-0.348-0.242c4.571,0.272,9.102,0.719,13.68,1.597 c3.729,0.716,8.468,2.566,12.315,1.602c-0.458,0.542-0.734,1.236-0.691,2.042c0.124,2.361,0.194,4.703,0.228,7.032 c-4.165-2.97-8.87-5.4-13.078-7.814c-1.017-0.583-1.899,0.945-0.914,1.563c4.928,3.091,9.466,6.45,13.992,9.938 c-0.003,0.877,0.014,1.76,0,2.636C174.461,57.343,165.471,52.437,157.932,44.747z"/></symbol><symbol id="sketch-1" viewBox="0 0 190.765 190.764"><title>sketch-1</title><path d="M44.356,41.74c-0.005-0.058-0.031-0.097-0.04-0.152c0.521-1.419,0.1-3.178-1.35-3.969 c-3.97-2.164-10.437-0.553-14.781-0.273c-5.607,0.362-11.237,0.686-16.815,1.367c-1.507,0.184-2.407,1.177-2.721,2.298 c-1.406-0.636-3.322-0.213-4.114,1.721c-6.763,16.505-4.127,39.658-3.529,57.674c-0.149,0.33-0.172,0.733,0.028,1.077 c0.021,0.73,0.046,1.47,0.058,2.181c0.189,10.768,0.547,21.536,1.111,32.292c0.186,3.534-0.42,10.438,2.876,13.025 c1.22,0.958,2.878,0.876,3.949,0.09c0.181,0.765,0.979,1.448,1.699,1.625c4.441,1.09,9.184,1.382,13.713,1.954 c4.353,0.553,10.361,2.74,14.49,0.859c1.286-0.586,1.732-2.184,1.377-3.499c0.77,0.229,1.61,0.179,2.353-0.123 c0.723,0.074,1.217-0.446,1.4-1.109c0.348-0.491,0.594-1.102,0.647-1.862C47.099,112.422,47.122,76.202,44.356,41.74z M40.737,44.067c-0.274,3.301-0.495,6.656-0.739,9.989c-4.374-3.642-9.533-6.808-14.365-9.609c0.336-0.011,0.674-0.023,1.01-0.033 C30.616,44.296,36.469,45.184,40.737,44.067z M7.973,69.963c5.929,4.273,11.618,8.872,17.382,13.368 c3.875,3.022,7.909,6.689,12.342,9.185c-0.12,3.137-0.252,6.275-0.332,9.412c-4.708-3.905-9.896-7.363-14.607-11.219 C17.876,86.714,13.03,82.681,8.09,78.76C8.014,75.831,7.967,72.894,7.973,69.963z M8.167,81.687 c4.263,3.598,8.456,7.273,12.613,11.001c5.157,4.623,10.468,9.999,16.511,13.587c-0.062,3.302-0.162,6.607-0.169,9.898 c-4.626-4.688-10.647-8.678-15.438-12.557c-4.301-3.482-8.628-7.132-13.108-10.481C8.444,89.365,8.289,85.536,8.167,81.687z M8.789,100.535c-0.026-1.283-0.071-2.597-0.11-3.897c3.589,3.095,7.322,6.061,10.875,9.108 c5.802,4.978,11.31,11.442,17.584,15.961c0.024,2.772,0.049,5.545,0.118,8.305c-4.238-5.245-10.159-9.617-15.054-14.138 c-4.271-3.945-8.696-7.691-13.308-11.205C8.862,103.291,8.817,101.913,8.789,100.535z M8.979,108.103 c3.724,3.255,7.325,6.647,10.885,10.108c5.275,5.129,10.344,11.864,16.81,15.454c0.229,0.127,0.476,0.158,0.718,0.145 c0.079,2.37,0.138,4.747,0.256,7.104c-3.041-2.695-6.258-5.281-9.041-8.006c-6.138-6.013-12.243-12.061-19.019-17.361 c-0.138-0.108-0.285-0.158-0.429-0.217C9.086,112.92,9.039,110.512,8.979,108.103z M11.39,145.795 c-0.49,0.062-0.991,0.221-1.416,0.479c-0.011-0.047-0.003-0.086-0.016-0.134c-0.505-1.8-0.236-6.912-0.144-10.936 c3.602,3.684,7.4,7.288,11.43,10.539C17.943,145.521,14.59,145.386,11.39,145.795z M27.751,146.139 c-6.147-4.435-12.216-8.841-17.927-13.853c-0.005-0.22-0.004-0.474-0.014-0.668c-0.206-4.031-0.35-8.065-0.492-12.101 c5.873,4.997,11.283,10.493,16.683,15.995c3.638,3.707,7.552,8.616,12.062,11.879c0.032,0.101,0.05,0.211,0.079,0.314 C35.27,146.162,31.142,146.221,27.751,146.139z M37.878,87.373c-4.139-2.851-8.566-5.446-12.545-8.336 c-5.681-4.127-11.375-8.204-17.326-11.912c0.045-2.95,0.183-5.88,0.383-8.791c5.639,3.718,10.902,7.975,16.146,12.252 c4.117,3.359,8.711,7.87,13.692,10.581C38.121,83.238,37.971,85.297,37.878,87.373z M38.521,75.968 c-3.943-2.719-8.058-5.273-11.855-8.144c-5.87-4.439-11.705-9.002-18.029-12.773c0.276-2.923,0.684-5.802,1.194-8.644 c0.22-0.029,0.397-0.135,0.531-0.314c-0.053,0.21,0.071,0.539,0.932,1.4c0.964,0.963,2.288,1.798,3.381,2.629 c3.696,2.811,7.376,5.643,11.104,8.411c2.947,2.188,8.346,7.404,13.221,9.824C38.842,70.896,38.667,73.424,38.521,75.968z M36.243,61.198c-4.607-2.929-9.048-6.108-13.553-9.188c-1.418-0.969-7.349-6.081-11.117-7.341 c3.367,0.109,6.742,0.019,10.114-0.093c0.043,0.336,0.216,0.664,0.584,0.904c3.438,2.238,6.716,4.674,9.927,7.227 c2.495,1.982,4.858,4.26,7.446,6.159c-0.093,1.338-0.206,2.658-0.296,3.999C38.208,62.291,37.107,61.748,36.243,61.198z"/><path d="M188.966,75.47c-0.367-0.696-0.931-1.157-1.568-1.424c0.085-0.31,0.143-0.628,0.173-0.994 c0.139-1.633-1.281-3.418-2.857-3.754c-4.878-1.04-48.61-3.913-48.043-0.14c-0.104-0.692-1.241-0.667-1.368,0 c-0.009,0.038-0.015,0.076-0.022,0.115c-0.065,0.349,0.049,0.618,0.335,0.823c2.974,2.133,5.907,2.925,9.262,3.369 c5.955,3.593,11.651,8.472,17.146,12.642c6.66,5.056,12.918,11.993,19.949,16.61c-0.351,4.244-0.851,8.476-1.513,12.676 c-4.108-2.828-12.222-2.153-18.349-1.7c-7.158-8.673-17.731-15.283-26.604-21.927c-10.404-7.792-21.041-15.258-31.808-22.535 c2.725-2.211,5.39-4.482,8.022-6.777c19.467,18.678,42.202,35.166,63.903,50.874c2.049,1.481,4.518-1.801,2.68-3.473 c-14.409-13.103-30.621-24.223-46.455-35.771c1.428-0.391,2.62-1.509,2.604-3.422c-0.079-10.07-0.423-20.19-1.089-30.239 c-0.055-0.831-0.391-1.453-0.861-1.878c-0.95-1.701-2.987-2.735-4.982-1.355c-20.895,14.455-38.092,34.361-58.622,49.57 c-0.992,0.736-1.299,1.781-1.15,2.726c-2.232-1.272-5.592,1.163-3.796,3.585c9.256,12.483,22.911,21.221,35.012,30.72 c5.074,3.983,10.188,7.918,15.274,11.889c2.151,1.679,4.282,3.381,6.393,5.112c2.269,1.86,2.576,1.74,2.541,0.916 c0.508,0.948,1.123,1.479,2.146,1.84c2.219,0.781,4.602-1.674,3.867-3.867c-2.548-7.613-14.009-13.299-20.066-17.911 c-12.994-9.895-26.32-19.258-38.591-30.035c0.341-0.046,0.698-0.155,1.068-0.36c4.785-2.654,9.563-5.629,14.293-8.823 c7.392,7.507,15.068,14.735,23.095,21.558c5.657,4.809,13.361,12.644,20.974,14.071c-0.34,1.165-0.461,2.53-0.47,3.905 c-6.241-5.24-15.106-8.827-21.757-12.995c-9.694-6.075-19.465-12.587-27.289-21.014c-1.067-1.149-3.183,0.427-2.203,1.699 c6.16,7.994,14.165,14.047,22.297,19.911c8.295,5.981,18.876,14.879,28.93,17.789c-0.201,3.841-0.461,7.716-0.198,11.552 c0.247,3.591,5.23,3.547,5.542,0c0.368-4.191,0.781-8.38,1.228-12.563c0.157-1.47,0.594-3.363,0.747-5.206 c6.128,1.678,14.604,0.078,20.891,0.128c5.928,0.047,18.025,2.799,23.108-0.973c0.146-0.108,0.205-0.247,0.326-0.365 c1.569,1.625,4.599,1.667,5.32-1.196c1.931-7.672,2.859-15.541,3.525-23.414C190.473,89.376,191.911,81.058,188.966,75.47z M127.73,47.482c-0.189,3.673-0.345,7.351-0.468,11.028c-1.714-1.927-3.864-3.437-6.236-4.493 C123.32,51.854,125.561,49.672,127.73,47.482z M119.08,55.797c3.145,1.459,5.755,3.418,8.098,6.294 c-0.075,2.815-0.152,5.632-0.177,8.443c-4.416-3.274-8.754-6.634-13.022-10.07C115.713,58.924,117.396,57.36,119.08,55.797z M136.082,116.813c-0.143-0.242-0.274-0.49-0.471-0.701c-0.99-1.062-2.499-1.12-3.707-0.515c-0.102-0.119-0.202-0.24-0.345-0.344 c-7.27-5.28-15.04-9.57-22.146-15.226c-7.469-5.943-14.643-12.267-21.603-18.801c2.58-1.782,5.134-3.649,7.673-5.552 c8.171,7.716,16.68,15.081,25.272,22.318c6.422,5.409,13.463,12.54,21.226,16.476 C139.687,114.907,137.596,115.604,136.082,116.813z M146.913,113.897c-0.015-0.398-0.157-0.788-0.487-1.085 c-7.818-7.051-17.682-12.348-26.031-18.833c-8.021-6.231-15.776-12.787-23.533-19.339c1.641-1.247,3.244-2.556,4.861-3.844 c9.086,7.417,18.38,14.569,27.629,21.787c8.552,6.674,16.699,14.852,25.604,21.333C152.57,113.86,149.744,113.766,146.913,113.897 z M182.043,83.342c-1.677-1.246-3.497-2.345-5.155-3.467c-2.38-1.609-4.809-3.147-7.255-4.65 c4.312,0.325,8.607,0.776,12.852,1.556C182.032,78.852,181.972,81.08,182.043,83.342z M182.352,96.598 c-4.929-4.805-11.85-8.83-16.839-12.478c-4.828-3.529-9.8-7.313-15.148-10.12c4.279,0.362,8.59,0.57,12.9,0.813 c3.608,2.276,7.161,4.632,10.64,7.102c2.771,1.968,5.41,4.496,8.403,6.188c0.11,1.702,0.207,3.381,0.177,4.978 C182.463,94.253,182.401,95.425,182.352,96.598z"/></symbol><symbol id="book" viewBox="0 0 195.372 195.372"><title>book</title><path d="M190.735,105.041c-0.775-18.511,1.151-38.177-1.851-56.44c-0.146-0.888-0.719-1.475-1.433-1.827 c-14.613-32.659-64.33-25.695-84.387-0.502c-6.814-14.377-32.479-19.53-45.559-21.124c-16.553-2.017-37.784,1.808-46.261,17.471 C10,41.832,8.333,41.893,7.358,43.62c-8.772,15.568-7.373,37.86-7.133,55.066c0.316,22.711,2.602,45.406,4.098,68.059 c0.087,1.32,0.855,2.149,1.791,2.484c0.768,1.371,2.872,2.131,4.227,0.787c24.762-24.558,58.705-20.766,86.448-4.792 c-0.281,0.924-0.239,1.917,0.278,2.85c0.322,0.581,0.543,1.177,1.223,1.383c0.316,0.097,0.635,0.193,0.952,0.289 c1.239,0.377,2.631-0.042,3.538-0.935c19.492-19.194,68.247-33.826,82.981-3.16c1.367,2.847,4.508,1.983,5.831-0.114 c1.363,1.105,4.004,0.457,3.764-1.651C193.126,144.31,191.56,124.725,190.735,105.041z M9.956,162.45 c0.52-17.842-0.992-35.717-1.699-53.534c-0.839-21.138,1.161-40.457,4.273-61.127c0.132-0.099,0.264-0.198,0.368-0.337 c10.682-14.259,27.894-16.267,44.61-14.903c17.428,1.422,29.045,8.995,41.426,20.05c-0.321,0.764-0.328,1.475-0.079,2.078 c-8.093,32.673-3.301,69.736,0.177,103.212C77.516,135.239,30.672,140.82,9.956,162.45z M104.124,157.983 c3.484-34.794-3.837-69.872,2.1-104.797c0.056-0.328,0.023-0.619,0.002-0.914c17.236-20.141,62.613-32.491,74.579-1.838 c0.361,0.925,0.961,1.567,1.664,1.983c-2.144,17.092-0.354,35.612,0.432,52.624c0.727,15.714,2.093,31.496,5.134,46.947 C173.042,129.173,125.406,142.471,104.124,157.983z"/><path d="M86.707,130.321c-3.164-10.346-19.909-13.347-29.235-13.89c-12.789-0.745-25.531,5.967-30.985,17.64 c-1.06,2.271,1.883,5.084,3.722,2.872c7.282-8.759,15.779-12.971,27.263-12.888c5.591,0.04,11.082,1.934,16.08,4.267 c3.683,1.719,6.045,4.463,10.13,5.025C85.419,133.584,87.313,132.307,86.707,130.321z"/><path d="M82.646,102.266c-3.953-8.402-18.622-9.572-26.6-9.603c-11.462-0.043-23.351,4.339-29.994,13.968 c-1.871,2.713,2.3,5.826,4.512,3.48c6.891-7.313,15.604-10.04,25.482-10.278c9.327-0.225,15.026,4.077,23.195,6.863 C81.975,107.629,83.677,104.457,82.646,102.266z"/><path d="M84.164,69.619c-16.352-19.255-43.959-10.478-56.542,8.477c-1.705,2.569,2.199,5.564,4.258,3.285 C44.015,67.946,64.904,58.605,78.781,75C81.957,78.751,87.321,73.338,84.164,69.619z"/><path d="M155.635,116.111c-14.532-4.178-26.331,1.172-37.814,10.468c-0.819,0.663-1.027,1.977-0.775,2.938v-0.002 c-0.059,0.626,0.358,1.195,0.903,1.429c0.744,0.626,1.853,1.048,2.809,0.681c6.593-2.53,14.015-9.466,21.107-9.873 c5.405-0.31,11.062,1.532,16.123,3.214c2.319,0.77,4.538,1.781,6.708,2.895c1.026,0.522,1.965,1.171,2.824,1.935 c-0.975,2.419,1.466,5.249,4.169,3.755C184.396,126.521,159.953,117.353,155.635,116.111z"/><path d="M172.246,105.445c-4.487-8.533-17.181-11.13-25.993-11.852c-11.463-0.939-22.854,4.896-30.634,12.862 c-1.773,1.816,0.591,5.147,2.784,3.609c8.669-6.078,17.082-9.709,27.85-9.204c8.883,0.417,15.122,6.441,23.297,8.092 C171.617,109.37,173.258,107.368,172.246,105.445z"/><path d="M174.529,67.745c-14.223-20.071-44.669-10.407-57.657,5.624c-2.024,2.498,1.287,6.03,3.604,3.605 c6.254-6.542,13.535-10.703,22.354-12.723c10.77-2.468,18.716,2.218,27.081,8.112C172.637,74.282,176.462,70.471,174.529,67.745z"/></symbol><symbol id="100-percent" viewBox="0 0 191.246 191.246"><title>100-percent</title><path d="M166.91,90.719c-7.745-49.408-51.538-79.258-99.775-73.307C22.982,22.86-5.271,61.396,0.825,104.526 c5.531,39.136,48.146,91.553,91.496,77.525c0.325,0.302,0.754,0.513,1.333,0.503C141.807,181.742,174.008,135.998,166.91,90.719z M112.203,26.1c0.022,0.077,0.014,0.156,0.074,0.228c5.805,6.836,11.909,13.394,18.142,19.841 c5.994,6.2,12.392,13.483,19.876,17.872c0.96,0.563,1.817-0.691,1.139-1.476c-5.669-6.557-13.192-11.927-19.534-17.877 c-5.937-5.572-11.556-11.463-17.111-17.412c19.73,9.266,35.113,26.87,43.575,48.318c-6.422-7.913-15.033-14.382-22.592-21.036 C123.236,43.521,110.3,32.972,97.996,21.671C102.932,22.669,107.67,24.178,112.203,26.1z M31.377,37.454 c15.216,20.825,35.589,36.298,54.83,53.231c-2.363-0.911-4.867-1.18-7.172-0.506c-1.274-0.081-2.457,0.332-3.498,1.072 c-0.026-0.19-0.064-0.384-0.208-0.56c-8.228-10.062-20.237-16.843-28.786-26.919c-6.527-7.693-13.318-15.116-20.451-22.029 C27.782,40.242,29.551,38.819,31.377,37.454z M89.474,97.741c3.779,3.534,2.606,8.074-0.847,11.257 c-3.141,2.896-8.323,5.135-11.273,0.925c-2.563-3.658-3.618-13.272,0.347-16.32c0.099,0.053,0.163,0.152,0.276,0.184 c1.944,0.529,3.945,0.299,5.929,0.779C86.022,95.078,87.9,96.271,89.474,97.741z M25.551,42.26 c12.609,18.3,28.488,39.345,48.553,50.02c0.09,0.048,0.164,0.016,0.251,0.038c-1.06,1.149-1.901,2.653-2.401,4.317 c-0.482,1.603-0.714,3.374-0.738,5.176C53.934,83.743,37.388,65.458,21.56,46.071C22.824,44.745,24.185,43.499,25.551,42.26z M12.787,127.023c7.602,8.316,14.78,16.51,21.452,25.862c4.224,5.92,8.636,11.732,13.577,17.042 C32.767,159.997,20.732,143.95,12.787,127.023z M57.341,175.174c-10.413-9.035-18.135-20.429-26.345-31.434 c-5.342-7.16-11.443-15.846-19.679-19.951c-2.033-4.66-3.748-9.359-5.136-13.991c12.937,17.046,26.994,33.187,41.357,49.046 c4.225,4.665,11.046,13.98,17.77,19.192C62.587,177.272,59.925,176.322,57.341,175.174z M73.017,179.593 c-6.96-8.161-15.529-15.496-23.11-23.116c-15.93-16.01-30.184-33.927-44.902-51.062c-0.971-4.123-1.534-8.159-1.734-12.099 c14.143,12.321,26.023,28.741,38.262,42.697c12.226,13.94,27.241,28.026,37.374,43.58c0.133,0.204,0.325,0.319,0.522,0.412 C77.262,179.976,75.117,179.866,73.017,179.593z M80.48,179.992c0.373-0.174,0.677-0.49,0.67-1.009 c-0.044-3.323-4.773-7.23-6.637-9.489c-8.464-10.252-17.196-20.282-25.932-30.303c-9.831-11.276-19.787-22.45-30.003-33.379 c-4.641-4.965-9.529-11.219-15.363-15.06c-0.042-4.138,0.388-8.137,1.124-12.024c12.306,18.6,28.071,34.198,43.51,50.189 c15.195,15.738,27.431,33.866,42.345,49.802c0.097,0.104,0.219,0.146,0.333,0.211C87.116,179.567,83.754,179.971,80.48,179.992z M95.104,178.387c-0.295-0.157-0.657-0.227-1.096-0.113c-0.571,0.146-1.121,0.193-1.688,0.319c0.053-0.061,0.125-0.1,0.168-0.168 c0.234-0.368,0.468-0.737,0.702-1.105c0.625-0.984-0.681-2.452-1.681-1.681c1.767-1.361-80.11-90.223-86.299-98.325 c-0.158-0.207-0.367-0.291-0.58-0.309c0.515-2.349,1.21-4.628,1.987-6.87c30.939,35.581,62.63,71.417,92.341,107.985 C97.686,178.236,96.404,178.339,95.104,178.387z M109.396,176.295c-2.481,0.621-5.01,1.144-7.61,1.489 c-6.914-4.975-33.915-39.544-37.163-43.336C45.68,112.332,27.523,89.597,7.131,68.768c1.032-2.765,2.297-5.423,3.698-8.005 c18.078,23.109,37.217,45.304,56.489,67.419c10.981,12.601,29.576,42.146,43.397,47.4 C110.027,175.321,109.557,175.742,109.396,176.295z M116.193,171.991c0.407,0.535,0.814,1.07,1.222,1.604 c-1.721,0.668-3.439,1.34-5.231,1.872c-6.134-13.335-21.403-25.681-30.724-36.381C58.25,112.438,34.799,86,11.545,59.391 c1.117-1.947,2.367-3.817,3.678-5.646c36.372,36.35,61.926,85.543,102.662,116.556 C116.918,169.562,115.457,171.023,116.193,171.991z M120.582,172.294c-17.078-21.3-36.586-40.443-53.521-61.88 C51.07,90.173,36.335,68.743,16.314,52.227c1.315-1.734,2.77-3.369,4.247-4.985c14.275,21.17,31.145,42.587,50.735,58.906 c0.118,0.099,0.243,0.146,0.366,0.205c0.634,2.934,1.92,5.684,3.969,7.665c0.902,0.872,1.887,1.449,2.912,1.827 c0.256,2.403,3.625,4.467,5.076,5.942c5.917,6.021,12.273,11.608,18.248,17.577c8.378,8.37,14.334,23.139,24.689,29.231 c0.418,0.246,0.9,0.124,1.276-0.134C125.496,169.858,123.096,171.17,120.582,172.294z M128.043,168.325 c0.358-0.355,0.517-0.884,0.151-1.37c-6.17-8.208-12.409-16.716-19.083-24.54c-4.694-5.505-10.178-10.338-15.547-15.162 c-2.707-2.433-5.468-4.807-8.186-7.226c-0.214-0.19-4.426-2.773-5.227-3.771c3.61,0.535,7.537-1.285,10.594-3.815 c0.023,0.037,0.008,0.074,0.038,0.11c8.076,9.918,16.875,19.448,25.693,28.708c5.49,5.764,14.186,16.405,22.747,18.638 C135.786,163.047,132.067,165.897,128.043,168.325z M141.21,157.964c-7.938-7.153-16.567-13.249-24.188-21.009 c-8.297-8.448-15.971-17.958-25.063-25.567c1.047-1.013,1.947-2.094,2.632-3.161c1.962-3.062,1.768-6.463,0.342-9.51 c9.297,8.9,18.062,18.375,26.957,27.656c3.637,3.796,19.469,24.694,25.511,22.502c-1.136,0.412-1.062,1.954,0.012,2.265 C145.502,153.553,143.399,155.801,141.21,157.964z M152.049,144.556c-0.836,1.322-1.706,2.623-2.621,3.89 c-19.457-16.171-35.676-36.065-53.84-53.642c-20.666-19.997-44.077-36.379-62.88-58.275c2.159-1.548,4.427-2.967,6.745-4.318 C52.271,43.124,151.917,143.337,152.19,143.089C151.674,143.557,151.737,144.132,152.049,144.556z M163.702,109.886 c-0.185-0.254-0.368-0.508-0.553-0.763c-0.733-1.013-2.289-0.418-2.025,0.854c-1.077-5.211-7.05-9.232-11.166-13.286 c-8.913-8.779-17.777-17.503-26.476-26.515c-16.444-17.04-33.606-33.536-53.242-46.881c-0.36-0.245-0.812,0.335-0.467,0.606 c20.413,15.976,38.191,34.363,55.908,53.219c10.104,10.753,23.079,28.964,36.514,35.586c0.379,0.188,0.791,0.146,1.182,0.02 c-0.295,2.403-0.663,4.793-1.183,7.146c-5.411-6.061-13.049-11.438-18.856-16.652c-12.919-11.597-24.82-24.377-37.181-36.567 c-9.842-9.705-19.82-19.289-29.968-28.672c-3.642-3.368-9.15-11.022-13.815-12.62c0.244,0.083,0.363-0.266,0.167-0.397 c-0.326-0.217-0.651-0.433-0.977-0.651c-0.252-0.168-0.531,0.061-0.554,0.318c-0.662,7.317,28.424,29.932,32.104,33.581 c14.214,14.091,28.037,28.614,42.455,42.49c6.954,6.693,18.321,19.324,26.235,20.634c-0.016,0.065-0.036,0.13-0.052,0.195 c-0.69,0.239-0.849,1.113-0.465,1.746c-1.664,6.184-3.999,12.159-7.106,17.71c-12.459-18.95-34.307-36.229-50.396-51.812 C83.699,69.722,63.577,47.884,41.005,31.307c9.83-5.466,20.896-9.161,32.44-10.586c8.31-1.025,16.269-0.659,23.822,0.79 c-0.41,0.154-0.688,0.657-0.289,1.077c19.489,20.495,41.734,38.357,61.552,58.45c0.573,0.581,1.312,0.543,1.875,0.204 c1.489,4.615,2.532,9.282,3.07,13.952c-13.46-15.099-27.321-29.284-42.527-42.684c-11.8-10.396-26.425-24.456-40.442-31.45 c-0.58-0.289-1.096,0.179-1.011,0.777c0.088,0.614,0.176,1.229,0.263,1.843c0.03,0.209,0.313,0.157,0.372,0 c-0.668,1.781,34.028,27.017,38.612,31.036c15.665,13.735,28.931,29.509,44.001,43.753c0.311,0.294,0.651,0.402,0.974,0.393 C163.957,102.556,164.009,106.241,163.702,109.886z"/><path d="M158.032,130.071c-15.601-22.936-41.072-41.527-60.84-60.768C87.059,59.44,76.749,49.767,66.616,39.903 c-3.522-3.428-10.636-13.123-16.37-12.683c-0.195,0.015-0.279,0.222-0.153,0.37c13.276,15.665,30.156,29.583,44.761,44.054 c12.176,12.064,25.205,23.195,37.047,35.573c5.158,5.392,9.849,11.759,15.646,16.456c1.755,1.57,3.472,3.182,5.149,4.835 c0.717,1.483,1.477,2.082,2.271,1.985c0.059,0.286,0.218,0.57,0.521,0.797c0.253,0.189,0.505,0.379,0.757,0.567 C157.297,132.647,158.744,131.118,158.032,130.071z"/><path d="M150.495,27.469c-2.448-5.25-1.371-11.94-1.821-17.548c-0.153-1.907-2.759-2.356-3.363-0.455 c-0.495,1.56-6.383,10.273-1.395,9.947c0.398-0.026,0.479-0.567,0.094-0.694c-0.37-0.122-0.392,0.24,0.162-0.561 c0.27-0.391,0.506-0.817,0.748-1.236c-0.034,5.976,0.708,13.225,4.711,12.671C150.634,29.453,150.842,28.213,150.495,27.469z"/><path d="M169.77,9.196c0.001-0.01,0.006-0.027,0.007-0.036c0.034-0.308-0.246-0.64-0.535-0.705 c-2.577-0.577-4.369,4.614-5.316,8.364c-1.025-4.612-3.689-10.238-7.824-9.938c-1.087,0.079-1.971,1.249-1.311,2.284 c0.234,0.369,0.554,0.653,0.855,0.953c-2.998,2.705-4.004,7.225-4.268,11.113c-0.226,3.313,0.446,9.057,4.627,9.634 c3.556,0.491,5.99-2.188,7.292-5.293c0.699,2.998,2.618,5.443,6.387,5.286C178.399,30.496,177.648,11.309,169.77,9.196z M159.715,24.696c-0.396,0.807-2.281,3.07-3.429,2.53c-2.017-0.948-1.694-5.679-1.604-7.394c0.147-2.749,0.971-5.768,2.693-8.009 c0.038,0.041,0.082,0.072,0.12,0.113c1.482,1.649,2.217,3.972,2.739,6.074C160.777,20.198,160.715,22.654,159.715,24.696z M169.247,27.227c-5.405,0.384-2.46-8.702-0.605-14.26c2.096,1.524,2.994,3.56,3.272,6.463 C172.093,21.303,172.052,27.027,169.247,27.227z"/><path d="M181.684,12.614c-0.204-0.49-0.355-0.884-0.759-1.244c-0.375-0.334-0.908-0.544-1.412-0.373 c-0.361,0.122-0.652,0.317-0.992,0.48c-0.407,0.195-0.407,0.661-0.232,1.043c-0.013,0.037-0.021,0.05-0.034,0.094 c-0.077,0.368-0.09,0.74-0.04,1.114c0.048,1.306,1.588,1.972,2.55,1.057c0.154-0.147,0.308-0.293,0.463-0.44 C181.64,13.952,181.916,13.17,181.684,12.614z"/><path d="M188.78,8.506c-2.354,1.081-3.908,5.641-5.077,7.757c-1.938,3.507-3.834,7.071-5.228,10.834 c-0.505,1.365,1.675,2.258,2.334,0.984c1.787-3.453,3.801-6.788,5.853-10.089c1.358-2.188,4.525-5.382,4.584-8.071 C191.275,8.58,189.856,8.013,188.78,8.506z"/><path d="M188.94,19.88c-1.379-0.609-3.411,0.771-2.32,2.321c0.317,0.452,0.304,1.208,0.388,1.725 c0.016,0.096,0.099,0.137,0.138,0.216c0.009,0.404,0.044,0.803,0.258,1.092c0.652,0.882,1.77,1.123,2.624,0.338 C191.877,23.873,191.081,20.825,188.94,19.88z"/></symbol><symbol id="trash" viewBox="0 0 190.247 190.246"><title>trash</title><path d="M163.509,31.96c0.275-3.999,1.173-9.215-1.807-12.256c-0.169-0.172-0.402-0.262-0.612-0.385 c-0.413-1.11-1.354-2.013-2.704-2.13c-15.681-1.353-31.746-1.738-47.587-2.294c-2.779-0.097-5.583-0.237-8.398-0.393 c0.443-1.752,0.473-3.798,0.716-5.332c0.239-1.506,0.896-3.146,0.896-4.671c0-2.395-1.451-4.192-3.605-4.466 c-4.245-0.541-4.405,5.565-4.409,8.617c-0.002,1.574-0.116,3.664,0.226,5.491c-21.988-1.368-44.704-3.246-65.874,2.115 c-1.208,0.306-1.771,1.394-1.834,2.533c-2.393,2.81-1.994,7.725-2.096,11.352c-0.161,5.729,0.422,11.422,1.406,17.04 c0.135,0.769,0.514,1.305,0.975,1.725c-0.061,1.166,0.472,2.38,1.636,2.591c3.885,0.703,7.811,1.146,11.754,1.481 c-8.812,42.674-2.226,87.327-1.862,130.594c0.021,2.43,1.743,4.004,3.849,4.194c31.703,2.863,64.041,4.308,95.515-1.679 c0.955-0.182,1.626-0.651,2.067-1.268c1.524,0.617,3.438-0.232,3.606-2.68c1.495-21.68,1.306-43.553,2.077-65.281 c0.722-20.375,3.53-42.125,1.003-62.395c3.312,0.176,6.627,0.331,9.938,0.547c1.676,0.11,2.819-0.711,3.438-1.896 c1.138-0.388,2.032-1.583,1.729-3.374C162.557,43.866,163.103,37.874,163.509,31.96z M139.697,110.873 c-0.884,22.313-2.401,45.152-0.171,67.435c-0.551-0.181-1.159-0.243-1.829-0.114c-29.515,5.629-59.95,4.355-89.711,1.532 c-0.427-42.196-4.747-84.267-0.509-126.369c7.199,0.376,14.452,0.326,21.693,0.177c-4.812,24.153-2.867,49.8-3.964,74.339 c-0.318,7.121-4.781,29.902,2.617,34.436c1.166,0.715,2.72,0.566,3.666-0.516c0.922-1.055,1.16-1.789,1.389-3.243 c0.187-1.187-0.277-2.242-1.003-2.882c0.21-0.053,0.229-0.811,0.155-3.527c-0.081-2.975,0.028-5.964,0.095-8.938 c0.148-6.566,0.517-13.123,0.682-19.688c0.587-23.416-0.695-46.702,0.675-70.084c5.616-0.138,11.22-0.292,16.769-0.322 c-1.708,17.654,0.441,35.936,1.581,53.551c0.669,10.322,1.004,20.647,0.891,30.994c-0.086,7.858-2.563,15.336-2.659,23.022 c-0.032,2.511,2.973,3.931,4.583,2.069c9-10.408,5.833-34.019,5.204-46.828c-1.03-20.981-3.58-41.816-4.623-62.799 c7.511,0.01,15.02,0.085,22.527,0.229c-1.049,16.95-1.146,33.99-1.891,50.961c-0.755,17.182-4.219,36.477-2.319,53.508 c0.377,3.377,4.502,4.303,5.565,0.82c4.538-14.881,3.202-33.366,3.738-48.912c0.645-18.636,1.077-37.596,0.02-56.232 c6.412,0.155,12.823,0.329,19.232,0.62C139.547,72.614,140.438,92.172,139.697,110.873z M91.672,44.347 c-18.904,0.03-38.485-1.147-57.29,1.699c-0.499-4.696-0.705-9.413-0.647-14.14c0.039-3.232,1.079-6.929,0.67-10.187 c26.449-1.597,53.148,0.913,79.588,2.106c10.39,0.469,20.774,1.022,31.169,1.374c3.674,0.124,7.585,0.697,11.138-0.258 c-0.184,2.854,0.14,5.867,0.132,8.585c-0.011,4.076,0,8.333,0.677,12.409C135.307,44.641,113.501,44.312,91.672,44.347z"/></symbol></svg>